<?xml version="1.0" encoding="UTF-8"?>
<svg width="210px" height="40px" viewBox="0 0 210 40" version="1.1" xmlns="http://www.w3.org/2000/svg" xmlns:xlink="http://www.w3.org/1999/xlink">
    <!-- Generator: Sketch 45.2 (43514) - http://www.bohemiancoding.com/sketch -->
    <title>Group</title>
    <desc>Created with Sketch.</desc>
    <defs>
        <linearGradient x1="75.0283468%" y1="0%" x2="27.3455477%" y2="100%" id="linearGradient-1">
            <stop stop-color="#12A5FF" offset="0%"></stop>
            <stop stop-color="#2284FF" offset="100%"></stop>
        </linearGradient>
    </defs>
    <g id="Page-1" stroke="none" stroke-width="1" fill="none" fill-rule="evenodd">
        <g id="Desktop-HD" transform="translate(-613.000000, -513.000000)">
            <g id="Group" transform="translate(613.000000, 513.000000)">
                <rect id="Rectangle" fill="url(#linearGradient-1)" x="0.289978027" y="0" width="209.699997" height="40" rx="20"></rect>
                <g id="Group-2" transform="translate(24.000000, 8.000000)" fill="#FFFFFF">
                    <g id="facebook-app-symbol" fill-rule="nonzero">
                        <path d="M8.38986848,24 L8.38986848,13.0532748 L12.0627554,13.0532748 L12.6137967,8.78587589 L8.38986848,8.78587589 L8.38986848,6.06176397 C8.38986848,4.82663934 8.73144603,3.98491675 10.5046172,3.98491675 L12.7624634,3.98398855 L12.7624634,0.167075977 C12.3720006,0.116334384 11.03168,0 9.47168543,0 C6.21416798,0 3.98401309,1.98835883 3.98401309,5.63912362 L3.98401309,8.78587589 L0.299987793,8.78587589 L0.299987793,13.0532748 L3.98401309,13.0532748 L3.98401309,24 L8.38986848,24 Z" id="f_1_"></path>
                    </g>
                    <text id="connect-with-faceboo" font-family="Cabin-SemiBold, Cabin" font-size="14" font-weight="500" letter-spacing="-0.136585325">
                        <tspan x="29" y="17">connect with facebook</tspan>
                    </text>
                </g>
            </g>
        </g>
    </g>
</svg>