<?xml version="1.0" encoding="UTF-8"?>
<svg width="335px" height="67px" viewBox="0 0 335 67" version="1.1" xmlns="http://www.w3.org/2000/svg" xmlns:xlink="http://www.w3.org/1999/xlink">
    <!-- Generator: Sketch 45.2 (43514) - http://www.bohemiancoding.com/sketch -->
    <title>logo stapler</title>
    <desc>Created with Sketch.</desc>
    <defs>
        <linearGradient x1="-6.38363711%" y1="49.9938564%" x2="105.304336%" y2="49.9938564%" id="linearGradient-1">
            <stop stop-color="#00FF00" offset="0%"></stop>
            <stop stop-color="#00FF09" offset="8%"></stop>
            <stop stop-color="#00FF23" offset="22%"></stop>
            <stop stop-color="#00FF4D" offset="40%"></stop>
            <stop stop-color="#00FF86" offset="62%"></stop>
            <stop stop-color="#00FFCF" offset="85%"></stop>
            <stop stop-color="#00FFFF" offset="100%"></stop>
        </linearGradient>
        <path d="M37.9930891,30.1812986 C36.2679377,28.8973414 34.3658069,27.8701908 32.3460089,27.1318753 C30.2848246,26.3648135 28.3036406,25.6589285 26.4024569,25.0142202 C25.080099,24.5906891 23.9036239,24.1812758 22.8730318,23.7859802 C21.9219015,23.4411247 21.0069221,23.0037315 20.1412567,22.4800929 C19.4398192,22.0661111 18.8432063,21.4960679 18.3977207,20.8142042 C17.9792989,20.0932038 17.7737124,19.2684103 17.8047772,18.4353717 C17.7632179,17.4690333 18.0248355,16.5138823 18.5530154,15.7035966 C19.0457305,14.9987526 19.6805192,14.4048405 20.4165519,13.9600606 C21.1842745,13.5009395 22.0322674,13.1919251 22.9153849,13.0494689 C23.1765623,13.0071158 23.4306809,12.9788804 23.6918584,12.950645 L30.9342388,2.12942744 C29.2707111,1.8103041 27.5810145,1.64724246 25.8871609,1.64236676 C23.2419905,1.64249405 20.6072869,1.97449991 18.0447782,2.63060581 C15.5540798,3.24787539 13.1943343,4.3070114 11.0776929,5.7576765 C9.02254115,7.17819164 7.31622908,9.04620514 6.08708572,11.2212266 C4.76265843,13.6740608 4.107741,16.4325048 4.18825498,19.2189041 C4.12570763,21.4330628 4.54477907,23.6343921 5.41649494,25.6706932 C6.18847888,27.3770535 7.29226524,28.9127562 8.66356608,30.1883574 C10.0260551,31.4393829 11.5767581,32.4684208 13.2588776,33.2377808 C14.9712084,34.0299325 16.7296924,34.71824 18.52478,35.2989651 C20.3741988,35.8824967 22.0212638,36.4236752 23.4659752,36.9225006 C24.2678747,37.1982662 25.0527755,37.5211833 25.8165724,37.8895631 C31.8801248,39.8801589 36.5601425,37.8401512 43.7884053,43.2684071 C43.7884053,42.8095818 43.8519349,42.3507565 43.8519349,41.856637 C43.9381551,39.4127556 43.3625843,36.9909684 42.1860462,34.8471987 C41.1094607,33.0308336 39.6845064,31.4451522 37.9930891,30.1812986 Z" id="path-2"></path>
        <filter x="-11.3%" y="-6.0%" width="122.7%" height="124.0%" filterUnits="objectBoundingBox" id="filter-3">
            <feOffset dx="0" dy="3" in="SourceAlpha" result="shadowOffsetOuter1"></feOffset>
            <feGaussianBlur stdDeviation="1" in="shadowOffsetOuter1" result="shadowBlurOuter1"></feGaussianBlur>
            <feColorMatrix values="0 0 0 0 0   0 0 0 0 0   0 0 0 0 0  0 0 0 0.2 0" type="matrix" in="shadowBlurOuter1"></feColorMatrix>
        </filter>
    </defs>
    <g id="Page-1" stroke="none" stroke-width="1" fill="none" fill-rule="evenodd">
        <g id="Desktop-HD" transform="translate(-552.000000, -296.000000)">
            <g id="logo-stapler" transform="translate(555.000000, 299.000000)">
                <path d="M35.6142566,17.6730158 C34.3988208,16.1512642 32.837992,14.9413194 31.0612981,14.1435907 C29.3694868,13.3156335 27.5163127,12.8698114 25.6330422,12.8377034 C24.7172839,12.8399072 23.8033814,12.9201983 22.9012672,13.0777043 C22.0181497,13.2201605 21.1701568,13.5291749 20.4024342,13.988296 C19.6664015,14.4330759 19.0316128,15.026988 18.5388977,15.731832 C18.0107178,16.5421177 17.7491002,17.4972687 17.7906595,18.4636071 C17.7592065,19.296686 17.9648195,20.1215859 18.383603,20.8424396 C18.8290886,21.5243033 19.4257015,22.0943465 20.127139,22.5083283 C20.9927828,23.0320069 21.9077662,23.4694021 22.8589141,23.8142156 C23.9130357,24.2095112 25.0895108,24.6189245 26.3883392,25.0424556 C28.2706993,25.6777521 30.2518833,26.3836371 32.3318912,27.1601107 C34.3516892,27.8984262 36.25382,28.9255768 37.9789714,30.209534 C39.6778868,31.4871557 41.1056105,33.0900456 42.1789874,34.924846 C43.3555255,37.0686157 43.9310962,39.4904029 43.8448761,41.9342844 C43.9196302,44.8215032 43.3100778,47.685432 42.0660458,50.2919631 C40.9344041,52.5739063 39.2947676,54.566101 37.2730864,56.1155147 C35.2111452,57.673026 32.8737521,58.8273534 30.3836485,59.5178805 C27.7824432,60.2582644 25.0904878,60.6312891 22.3859711,60.62612 C18.4101657,60.6261203 14.4669818,59.908743 10.7459269,58.5084649 C7.21653885,57.2520662 4.02018339,55.2072678 1.40000911,52.5296187 L10.272984,43.5013491 C11.761687,45.2819808 13.612028,46.7256798 15.7012398,47.7366593 C17.7652841,48.8265837 20.0590586,49.4097056 22.3930299,49.4378423 C23.3782071,49.4398728 24.3606089,49.3333473 25.3224528,49.120194 C26.2123466,48.9353978 27.0598493,48.5858628 27.8212858,48.0896018 C28.5378453,47.6084546 29.122658,46.9556969 29.5224688,46.1907711 C29.9617248,45.3156255 30.1798504,44.3461783 30.1577653,43.367231 C30.1860689,42.4096061 29.9092055,41.4677764 29.3671741,40.677809 C28.754086,39.863082 27.9865353,39.1770835 27.108342,38.6589778 C25.958629,37.9724664 24.7372355,37.4138445 23.4659752,36.9930891 C22.011852,36.4942637 20.364787,35.9530852 18.52478,35.3695536 C16.7296982,34.7888124 14.9712151,34.1005053 13.2588776,33.3083693 C11.5767581,32.5390093 10.0260551,31.5099714 8.66356608,30.2589459 C7.29226524,28.9833447 6.18847888,27.447642 5.41649494,25.7412817 C4.54477907,23.7049806 4.12570763,21.5036513 4.18825498,19.2894926 C4.107741,16.5030933 4.76265843,13.7446493 6.08708572,11.2918151 C7.31622908,9.11679364 9.02254115,7.24878015 11.0776929,5.828265 C13.1944093,4.37773359 15.5541298,3.3186088 18.0447782,2.70119431 C20.6072869,2.04508841 23.2419905,1.71308255 25.8871609,1.71295527 C29.1956413,1.73942506 32.475463,2.32902912 35.5860212,3.45649129 C38.7971941,4.56496938 41.7489601,6.31585416 44.2613482,8.60239318 L35.6142566,17.6730158 Z" id="Shape" fill="#FFFFFF" fill-rule="nonzero"></path>
                <path d="M33.616602,23.842451 L43.4989924,9.0541596 C45.262585,6.41673246 44.5547379,2.84905649 41.9178099,1.08471759 L41.9178099,1.08471759 C39.2803828,-0.67887505 35.7127068,0.0289720871 33.9483679,2.66590006 L1.38589141,51.3719672 C-0.40513573,54.0522488 0.315374764,57.6769222 2.99530928,59.4684686 L2.99530928,59.4684686 C5.67559083,61.2594957 9.30026423,60.5389852 11.0918106,57.8590507 L20.317728,42.7672287" id="Shape" stroke="url(#linearGradient-1)" stroke-width="6" stroke-linecap="round" stroke-linejoin="round"></path>
                <g id="Shape" fill-rule="nonzero">
                    <use fill="black" fill-opacity="1" filter="url(#filter-3)" xlink:href="#path-2"></use>
                    <use fill="#FFFFFF" fill-rule="evenodd" xlink:href="#path-2"></use>
                </g>
                <path d="M10.7459269,58.4943472 C14.2309252,59.7968203 17.9110107,60.5008574 21.6306741,60.5767081 L23.8400943,49.3460772 C23.3570888,49.3975067 22.8717068,49.4234252 22.3859711,49.4237246 C20.0519998,49.3955879 17.7582253,48.812466 15.694181,47.7225416 C14.4303568,47.0901102 13.2456717,46.3105875 12.1647558,45.4001799 L5.68473125,55.9884554 C7.27996418,56.9976601 8.97622915,57.8375123 10.7459269,58.4943472 L10.7459269,58.4943472 Z" id="Shape" fill="#FFFFFF" fill-rule="nonzero"></path>
                <path d="M32.8048342,15.1318297 C33.8775766,15.8173494 34.831285,16.6733027 35.6283743,17.665957 L44.2613482,8.56004007 C42.7773744,7.20342594 41.1320559,6.03463347 39.3625061,5.08002687 L32.8048342,15.1318297 Z" id="Shape" fill="#FFFFFF" fill-rule="nonzero"></path>
                <polygon id="Shape" fill="#FFFFFF" fill-rule="nonzero" points="75.6026436 17.6730158 75.6026436 60.7320028 62.190828 60.7320028 62.190828 17.6730158 46.6613573 17.6730158 46.6613573 6.37885533 91.1321143 6.37885533 91.1321143 17.6730158"></polygon>
                <path d="M129.624025,60.7320028 L125.388715,50.1437273 L104.078046,50.1437273 L100.040383,60.7320028 L85.5979757,60.7320028 L108.65924,6.37885533 L121.5487,6.37885533 L144.377022,60.7320028 L129.624025,60.7320028 L129.624025,60.7320028 Z M114.871028,20.6871449 L107.882766,39.5554518 L121.703995,39.5554518 L114.871028,20.6871449 Z" id="Shape" fill="#FFFFFF" fill-rule="nonzero"></path>
                <path d="M190.654845,22.8753885 C190.745863,25.6878756 190.131935,28.4784587 188.868956,30.9930664 C187.728744,33.1358635 186.074598,34.9622156 184.05482,36.3083807 C181.923401,37.7148755 179.556251,38.7262943 177.066558,39.2942744 C174.369668,39.9339489 171.607651,40.2584739 168.835939,40.2613368 L162.426503,40.2613368 L162.426503,60.7320028 L149.014687,60.7320028 L149.014687,6.37885533 L169.146528,6.37885533 C171.973398,6.30217054 174.800062,6.53890962 177.574795,7.08474036 C180.00583,7.57040892 182.323798,8.50909009 184.407762,9.85180968 C186.346152,11.1512612 187.922546,12.921971 188.988956,14.9977116 C190.169273,17.451566 190.740708,20.1537757 190.654845,22.8753885 L190.654845,22.8753885 Z M177.377148,22.9530359 C177.422128,21.8400233 177.153052,20.7368098 176.600674,19.7694944 C176.082194,18.9437757 175.350622,18.2731682 174.483019,17.8283105 C173.540854,17.3954952 172.530412,17.1303438 171.497125,17.0447782 C170.347443,16.9379965 169.19182,16.9096955 168.038289,16.960072 L162.391208,16.960072 L162.391208,29.6660025 L167.791229,29.6660025 C168.989385,29.6632487 170.184841,29.5522083 171.363007,29.3342366 C172.4391,29.1468656 173.475219,28.7768233 174.426548,28.2401148 C175.29734,27.745794 176.026532,27.0360464 176.544203,26.1789305 C177.113119,25.200648 177.401326,24.0844587 177.377148,22.9530359 L177.377148,22.9530359 Z" id="Shape" fill="#FFFFFF" fill-rule="nonzero"></path>
                <polygon id="Shape" fill="#FFFFFF" fill-rule="nonzero" points="198.426639 60.7320028 198.426639 6.37885533 211.838455 6.37885533 211.838455 49.4378423 233.015006 49.4378423 233.015006 60.7320028"></polygon>
                <polygon id="Shape" fill="#FFFFFF" fill-rule="nonzero" points="239.367971 60.7320028 239.367971 6.37885533 276.779878 6.37885533 276.779878 16.9671308 252.073902 16.9671308 252.073902 27.5554063 275.368108 27.5554063 275.368108 38.1436818 252.073902 38.1436818 252.073902 49.4378423 278.191648 49.4378423 278.191648 60.7320028"></polygon>
                <path d="M316.055321,60.7320028 L304.118805,39.5554518 L299.375258,39.5554518 L299.375258,60.7320028 L286.669327,60.7320028 L286.669327,6.37885533 L307.591759,6.37885533 C310.179906,6.30337932 312.768713,6.50452062 315.314142,6.9788576 C317.708794,7.44085451 319.998431,8.33804762 322.069461,9.62592647 C324.053967,10.8956327 325.693315,12.6368336 326.841244,14.694181 C328.106967,17.126817 328.722175,19.8454028 328.627133,22.5859757 C328.738423,25.9699185 327.66768,29.2869738 325.598886,31.9671877 C323.580055,34.501315 320.784751,36.2024979 317.212972,37.2966197 L331.584792,60.7320028 L316.055321,60.7320028 Z M315.511789,22.7977412 C315.563046,21.6897144 315.277578,20.5921369 314.692963,19.6494939 C314.156089,18.8591748 313.427472,18.217992 312.575308,17.7859574 C311.660067,17.3823638 310.684707,17.1319657 309.688238,17.0447782 C308.663531,16.9399503 307.632436,16.9116365 306.60352,16.960072 L299.36114,16.960072 L299.36114,29.6660025 L305.827047,29.6660025 C306.952521,29.6307188 308.073549,29.5079957 309.180001,29.2989423 C310.265865,29.1216605 311.318108,28.7788485 312.300012,28.2824679 C314.374855,27.2676897 315.634117,25.1029862 315.490613,22.7977412 L315.511789,22.7977412 Z" id="Shape" fill="#FFFFFF" fill-rule="nonzero"></path>
            </g>
        </g>
    </g>
</svg>