<?xml version="1.0" encoding="UTF-8"?>
<svg width="141px" height="38px" viewBox="0 0 141 38" version="1.1" xmlns="http://www.w3.org/2000/svg" xmlns:xlink="http://www.w3.org/1999/xlink">
    <!-- Generator: Sketch 45.2 (43514) - http://www.bohemiancoding.com/sketch -->
    <title>Download_on_the_App_Store_Badge_FR_135x40</title>
    <desc>Created with Sketch.</desc>
    <defs></defs>
    <g id="Page-1" stroke="none" stroke-width="1" fill="none" fill-rule="evenodd">
        <g id="Desktop-HD" transform="translate(-545.000000, -1706.000000)" fill-rule="nonzero" fill="#FFFFFF">
            <g id="Group-7" transform="translate(545.000000, 1706.000000)">
                <g id="Download_on_the_App_Store_Badge_FR_135x40">
                    <g id="Group">
                        <path d="M22.6301486,17.67525 C22.5929618,13.5423908 26.0141434,11.5317414 26.1705842,11.4381333 C24.233026,8.61322215 21.2298748,8.22724927 20.1745403,8.19647402 C17.6522524,7.93103752 15.2056203,9.70574341 13.9207538,9.70574341 C12.6102412,9.70574341 10.6316493,8.22212006 8.49918116,8.26571832 C5.755055,8.30803429 3.18788651,9.8968064 1.77991898,12.3639553 C-1.12577723,17.3944259 1.04131306,24.7868966 3.82519058,28.853076 C5.21777049,30.8444909 6.84501165,33.0680025 8.97491518,32.9897821 C11.0586558,32.9038679 11.8370131,31.6613173 14.3516072,31.6613173 C16.8431199,31.6613173 17.574032,32.9897821 19.7462515,32.9397723 C21.9825861,32.9038679 23.3905536,30.9393813 24.7344061,28.9300141 C26.343695,26.6475167 26.9899752,24.3996414 27.0156212,24.2842342 C26.9643291,24.266282 22.6724645,22.6287824 22.6301486,17.67525 Z" id="Shape"></path>
                        <path d="M18.5267824,5.52159217 C19.6475143,4.12003614 20.4143308,2.21325315 20.2014687,0.278259522 C18.5793567,0.35006843 16.5494728,1.39899142 15.382578,2.7710545 C14.3490426,3.97898293 13.4257852,5.95885713 13.6642934,7.82075955 C15.4864444,7.95668356 17.357323,6.90134906 18.5267824,5.52159217 Z" id="Shape"></path>
                    </g>
                    <g id="Group" transform="translate(39.096188, 16.042796)">
                        <polygon id="Shape" points="2.78900673 16.661033 0.296211749 16.661033 0.296211749 0.296295628 2.78900673 0.296295628"></polygon>
                        <path d="M9.29797139,0.688680023 C8.63630359,3.01221114 7.8515348,4.92027643 6.94366502,6.4128759 L5.39720888,6.57444594 C6.0742643,4.72793114 6.55897444,2.84294729 6.85133928,0.919494372 L9.29797139,0.688680023 Z" id="Shape"></path>
                        <path d="M21.5080505,16.661033 L18.8536855,16.661033 L17.3995551,12.0921912 L12.3447208,12.0921912 L10.9598347,16.661033 L8.37471399,16.661033 L13.3833854,1.10414585 L16.4762977,1.10414585 L21.5080505,16.661033 Z M16.9610078,10.1738675 L15.645366,6.11153494 C15.5068774,5.69735141 15.2452878,4.71895503 14.8605972,3.1801927 L14.8144343,3.1801927 C14.6605581,3.8418605 14.4143561,4.81897458 14.0758284,6.11153494 L12.7832681,10.1738675 L16.9610078,10.1738675 Z" id="Shape"></path>
                        <path d="M34.3862089,10.9124734 C34.3862089,12.8205387 33.8707235,14.3285258 32.8384705,15.4364347 C31.9152131,16.4225249 30.7688351,16.9136465 29.3993366,16.9136465 C27.9221248,16.9136465 26.8603788,16.3827735 26.2140986,15.3210275 L26.1679358,15.3210275 L26.1679358,21.2298748 L23.6751408,21.2298748 L23.6751408,9.13392062 C23.6751408,7.9324037 23.6443655,6.70267614 23.582815,5.44089102 L25.7755514,5.44089102 L25.91404,7.21944382 L25.9602028,7.21944382 C26.7911345,5.87943829 28.0529196,5.21135898 29.7455582,5.21135898 C31.0688938,5.21135898 32.1729558,5.73453817 33.0577441,6.78089655 C33.9438147,7.82853724 34.3862089,9.20444723 34.3862089,10.9124734 Z M31.8472511,11.0060815 C31.8472511,9.9135602 31.6010491,9.01338424 31.1086451,8.30683587 C30.5700783,7.56822995 29.84686,7.19892699 28.9389903,7.19892699 C28.3234853,7.19892699 27.7644017,7.402813 27.2655862,7.81186732 C26.7654885,8.21835703 26.4385015,8.75307694 26.2846252,9.41474475 C26.2076871,9.72249721 26.1692181,9.976393 26.1692181,10.1764321 L26.1692181,12.0460283 C26.1692181,12.8628547 26.4192669,13.5514508 26.9193647,14.1118168 C27.4194624,14.673465 28.0695895,14.9542891 28.8697459,14.9542891 C29.808391,14.9542891 30.5393031,14.59268 31.0624823,13.8694617 C31.5856615,13.1449611 31.8472511,12.1922108 31.8472511,11.0060815 Z" id="Shape"></path>
                        <path d="M47.2900134,10.9124734 C47.2900134,12.8205387 46.774528,14.3285258 45.7422749,15.4364347 C44.8202998,16.4225249 43.6739219,16.9136465 42.3031411,16.9136465 C40.8259293,16.9136465 39.7641833,16.3827735 39.1179031,15.3210275 L39.0730225,15.3210275 L39.0730225,21.2298748 L36.5789452,21.2298748 L36.5789452,9.13392062 C36.5789452,7.9324037 36.5494523,6.70267614 36.4891841,5.44089102 L38.6806381,5.44089102 L38.8178444,7.21944382 L38.8652896,7.21944382 C39.6962213,5.87943829 40.9567241,5.21135898 42.6493626,5.21135898 C43.9739805,5.21135898 45.0767602,5.73453817 45.9628308,6.78089655 C46.8463369,7.82853724 47.2900134,9.20444723 47.2900134,10.9124734 Z M44.7497732,11.0060815 C44.7497732,9.9135602 44.5048535,9.01338424 44.0111673,8.30683587 C43.4726005,7.56822995 42.7493822,7.19892699 41.8427947,7.19892699 C41.2272898,7.19892699 40.6682061,7.402813 40.1693907,7.81186732 C39.6680106,8.21835703 39.3410236,8.75307694 39.1871474,9.41474475 C39.108927,9.72249721 39.0717402,9.976393 39.0717402,10.1764321 L39.0717402,12.0460283 C39.0717402,12.8628547 39.3217891,13.5514508 39.8206045,14.1118168 C40.3219846,14.673465 40.9721117,14.9542891 41.7709858,14.9542891 C42.7096308,14.9542891 43.4418252,14.59268 43.9650044,13.8694617 C44.4869013,13.1449611 44.7497732,12.1922108 44.7497732,11.0060815 Z" id="Shape"></path>
                        <path d="M61.7133456,12.2999241 C61.7133456,13.6219774 61.2529992,14.6991111 60.3335887,15.531325 C59.3192879,16.4391948 57.9061911,16.8931297 56.0955808,16.8931297 C54.4196122,16.8931297 53.077042,16.5699896 52.0627412,15.9237094 L52.6384948,13.8463803 C53.731016,14.5093304 54.9325329,14.838882 56.2404809,14.838882 C57.1791259,14.838882 57.9113204,14.6273021 58.4344995,14.2028602 C58.9576787,13.7797006 59.2205506,13.2129231 59.2205506,12.5038101 C59.2205506,11.8716353 59.0051239,11.3407623 58.5742705,10.9086265 C58.143417,10.4777731 57.4266102,10.0764125 56.427697,9.70582729 C53.7028054,8.68896185 52.3397184,7.20149159 52.3397184,5.24469883 C52.3397184,3.96496149 52.818017,2.9173208 53.7720497,2.10049446 C54.7260823,1.28366812 55.9955612,0.874613804 57.5817688,0.874613804 C58.9974301,0.874613804 60.173301,1.12081578 61.1132283,1.61321972 L60.4900296,3.6431037 C59.612935,3.16608738 58.619151,2.92757922 57.5125244,2.92757922 C56.6354299,2.92757922 55.9493984,3.14300594 55.4582767,3.57385939 C55.0428109,3.95854998 54.835078,4.42787249 54.835078,4.98310923 C54.835078,5.59733186 55.0735862,6.10512343 55.5518848,6.50648394 C55.964786,6.8757869 56.7187795,7.2758651 57.8138654,7.70671856 C59.1513063,8.24528537 60.1361142,8.87617793 60.7670068,9.60067853 C61.3978993,10.3251791 61.7133456,11.2215082 61.7133456,12.2999241 Z" id="Shape"></path>
                        <path d="M69.9534179,7.31305186 L67.2080094,7.31305186 L67.2080094,12.7602705 C67.2080094,14.1451566 67.6914373,14.8375997 68.6608575,14.8375997 C69.1070986,14.8375997 69.4776839,14.7991306 69.7700487,14.7221925 L69.8380107,16.6148702 C69.3468891,16.8008039 68.7006089,16.8918474 67.8991702,16.8918474 C66.9143623,16.8918474 66.1462634,16.593071 65.592309,15.9916714 C65.0357899,15.3915541 64.7613773,14.3849471 64.7613773,12.9692857 L64.7613773,7.31433416 L63.1213131,7.31433416 L63.1213131,5.44473793 L64.7613773,5.44473793 L64.7613773,3.39049022 L67.2080094,2.6518843 L67.2080094,5.44473793 L69.9534179,5.44473793 L69.9534179,7.31305186 L69.9534179,7.31305186 Z" id="Shape"></path>
                        <path d="M82.3481485,10.9612009 C82.3481485,12.6833324 81.8544622,14.0989937 80.8709366,15.2081849 C79.8386836,16.346869 78.4717497,16.9162111 76.7637235,16.9162111 C75.1159655,16.9162111 73.8028883,16.3699505 72.8270566,15.2774292 C71.8499425,14.184908 71.3613854,12.8077157 71.3613854,11.1458524 C71.3613854,9.40705093 71.8653301,7.98369578 72.8745017,6.8757869 C73.8811088,5.76787802 75.2390665,5.21392358 76.9470927,5.21392358 C78.5948507,5.21392358 79.916904,5.76018421 80.9170995,6.85142316 C81.8698499,7.91316917 82.3481485,9.28266764 82.3481485,10.9612009 Z M79.7630278,11.0407036 C79.7630278,10.0058859 79.5399072,9.1198153 79.0923838,8.37864478 C78.5692047,7.48488032 77.8254695,7.03607464 76.8534847,7.03607464 C75.8545714,7.03607464 75.0928841,7.48488032 74.5697049,8.37864478 C74.1234638,9.1198153 73.9016256,10.0212736 73.9016256,11.0855842 C73.9016256,12.1216841 74.1247461,13.0077548 74.5697049,13.747643 C75.1082717,14.6426898 75.8622653,15.0914954 76.8316855,15.0914954 C77.7857182,15.0914954 78.5320179,14.6362783 79.0705847,13.7258439 C79.5296488,12.9692857 79.7630278,12.074239 79.7630278,11.0407036 Z" id="Shape"></path>
                        <path d="M90.4471676,7.63619195 C90.2022479,7.59002908 89.9406583,7.56694765 89.6636811,7.56694765 C88.7865865,7.56694765 88.1082488,7.89778155 87.6325148,8.55816705 C87.217049,9.14417904 87.009316,9.88278495 87.009316,10.7752671 L87.009316,16.661033 L84.5178034,16.661033 L84.5408848,8.97491518 C84.5408848,7.68235482 84.5113919,6.50520164 84.4485591,5.44345563 L86.6194963,5.44345563 L86.7092574,7.59002908 L86.779784,7.59002908 C87.0426559,6.85142316 87.4555571,6.26028197 88.0274638,5.81275859 C88.5814182,5.41268038 89.1815355,5.21264128 89.8278157,5.21264128 C90.0586301,5.21264128 90.266363,5.2280289 90.4484499,5.25752185 L90.4484499,7.63619195 L90.4471676,7.63619195 Z" id="Shape"></path>
                        <path d="M101.596783,10.5213713 C101.596783,10.9688947 101.564725,11.3446092 101.504457,11.6523616 L94.0260723,11.6523616 C94.0555652,12.7602705 94.419739,13.6065898 95.1108997,14.1913195 C95.7417923,14.7144987 96.5586186,14.974806 97.5575318,14.974806 C98.6641584,14.974806 99.67333,14.7978483 100.579918,14.4452153 L100.973584,16.1763229 C99.9118382,16.6379516 98.6564646,16.8687659 97.2113103,16.8687659 C95.4712266,16.8687659 94.105575,16.3584098 93.1143556,15.3338505 C92.1231362,14.3105736 91.6268853,12.9372282 91.6268853,11.2138144 C91.6268853,9.52117581 92.0872317,8.11320827 93.0092068,6.98991177 C93.9811917,5.78839485 95.2878574,5.19084214 96.9343331,5.19084214 C98.5500335,5.19084214 99.7746319,5.78967715 100.605564,6.98991177 C101.267231,7.94394442 101.596783,9.1210976 101.596783,10.5213713 Z M99.2206774,9.87509114 C99.2360651,9.13648522 99.0732127,8.49918116 98.734685,7.95933204 C98.3038316,7.26688899 97.6421638,6.92066747 96.7483993,6.92066747 C95.9341376,6.92066747 95.2737521,7.25919518 94.7646782,7.9349683 C94.3492124,8.47481742 94.1030104,9.1210976 94.0260723,9.87509114 L99.2206774,9.87509114 L99.2206774,9.87509114 Z" id="Shape"></path>
                    </g>
                </g>
            </g>
        </g>
    </g>
</svg>