<?xml version="1.0" encoding="UTF-8"?>
<svg width="158px" height="38px" viewBox="0 0 158 38" version="1.1" xmlns="http://www.w3.org/2000/svg" xmlns:xlink="http://www.w3.org/1999/xlink">
    <!-- Generator: Sketch 45.2 (43514) - http://www.bohemiancoding.com/sketch -->
    <title>google-play-badge (1)</title>
    <desc>Created with Sketch.</desc>
    <defs>
        <linearGradient x1="91.488428%" y1="4.9481245%" x2="-38.3517333%" y2="71.9074222%" id="linearGradient-1">
            <stop stop-color="#00A0FF" offset="0%"></stop>
            <stop stop-color="#00A1FF" offset="1%"></stop>
            <stop stop-color="#00BEFF" offset="26%"></stop>
            <stop stop-color="#00D2FF" offset="51%"></stop>
            <stop stop-color="#00DFFF" offset="76%"></stop>
            <stop stop-color="#00E3FF" offset="100%"></stop>
        </linearGradient>
        <linearGradient x1="107.684729%" y1="50%" x2="-130.640394%" y2="50%" id="linearGradient-2">
            <stop stop-color="#FFE000" offset="0%"></stop>
            <stop stop-color="#FFBD00" offset="41%"></stop>
            <stop stop-color="#FFA500" offset="78%"></stop>
            <stop stop-color="#FF9C00" offset="100%"></stop>
        </linearGradient>
        <linearGradient x1="86.219293%" y1="17.8768889%" x2="-50.1497903%" y2="194.702638%" id="linearGradient-3">
            <stop stop-color="#FF3A44" offset="0%"></stop>
            <stop stop-color="#C31162" offset="100%"></stop>
        </linearGradient>
        <linearGradient x1="-18.7537448%" y1="-54.0521474%" x2="42.1210306%" y2="24.9170664%" id="linearGradient-4">
            <stop stop-color="#32A071" offset="0%"></stop>
            <stop stop-color="#2DA771" offset="7%"></stop>
            <stop stop-color="#15CF74" offset="48%"></stop>
            <stop stop-color="#06E775" offset="80%"></stop>
            <stop stop-color="#00F076" offset="100%"></stop>
        </linearGradient>
    </defs>
    <g id="Page-1" stroke="none" stroke-width="1" fill="none" fill-rule="evenodd">
        <g id="Desktop-HD" transform="translate(-737.000000, -1706.000000)" fill-rule="nonzero">
            <g id="Group-7" transform="translate(545.000000, 1706.000000)">
                <g id="google-play-badge-(1)" transform="translate(192.375000, 0.000000)">
                    <path d="M78.945,20.33 C75.7630768,20.3449739 73.1943431,22.9339244 73.204314,26.1158673 C73.2142849,29.2978101 75.7991933,31.8706112 78.9811479,31.8656434 C82.1631025,31.8606756 84.7399648,29.2798156 84.74,26.0978571 C84.7623562,24.5566501 84.1581,23.0723918 83.065632,21.9850407 C81.9731639,20.8976896 80.4860851,20.3004084 78.945,20.33 L78.945,20.33 Z M78.945,29.5992857 C77.5108085,29.6995857 76.1610562,28.9129969 75.5413146,27.615736 C74.9215731,26.3184752 75.1578058,24.7742124 76.1370251,23.7215516 C77.1162444,22.6688908 78.6394228,22.3217868 79.9780406,22.8462556 C81.3166585,23.3707244 82.1986399,24.660167 82.2021429,26.0978571 C82.2463081,26.9971976 81.9253301,27.8762473 81.3120476,28.535526 C80.6987651,29.1948047 79.8451821,29.5784079 78.945,29.5992857 L78.945,29.5992857 Z M66.31,20.33 C63.1262779,20.3374911 60.5507302,22.9231564 60.5557214,26.1068835 C60.5607125,29.2906105 63.1443546,31.8681877 66.3280846,31.8656966 C69.5118146,31.8632054 72.0914198,29.2815881 72.0914286,26.0978571 C72.1137848,24.5566501 71.5095286,23.0723918 70.4170605,21.9850407 C69.3245925,20.8976896 67.8375136,20.3004084 66.2964286,20.33 L66.31,20.33 Z M66.31,29.5992857 C64.8750599,29.705242 63.5213721,28.9225753 62.8972631,27.6261311 C62.273154,26.3296869 62.505688,24.7834121 63.4834967,23.7278696 C64.4613054,22.6723272 65.9853138,22.3224181 67.3256231,22.8457257 C68.6659323,23.3690333 69.5496648,24.6590158 69.5535714,26.0978571 C69.5977366,26.9971976 69.2767587,27.8762473 68.6634762,28.535526 C68.0501937,29.1948047 67.1966107,29.5784079 66.2964286,29.5992857 L66.31,29.5992857 Z M51.2592857,22.1078571 L51.2592857,24.5507143 L57.1221429,24.5507143 C57.0302147,25.7013051 56.551932,26.7870068 55.765,27.6314286 C54.5788882,28.8395906 52.9374515,29.4902502 51.2457143,29.4228571 C47.6479736,29.4228571 44.7314286,26.5063121 44.7314286,22.9085714 C44.7314286,19.3108308 47.6479736,16.3942857 51.2457143,16.3942857 C52.8984371,16.3673313 54.4943912,16.9969279 55.6835714,18.145 L57.4071429,16.4214286 C55.785248,14.7790932 53.5674036,13.8635592 51.2592857,13.8835714 C47.9735896,13.7557001 44.8812484,15.4356974 43.2003734,18.2617917 C41.5194983,21.087886 41.5194983,24.607114 43.2003734,27.4332083 C44.8812484,30.2593026 47.9735896,31.9392999 51.2592857,31.8114286 C53.6095383,31.9176309 55.8908624,31.002132 57.5157143,29.3007143 C58.9375599,27.7385364 59.6967013,25.6849616 59.6328571,23.5735714 C59.6372364,23.0591983 59.5917862,22.5456101 59.4971429,22.04 L51.2592857,22.04 L51.2592857,22.1078571 Z M112.751429,24.0078571 C112.026822,21.8760708 110.061473,20.4128577 107.811429,20.33 C106.310922,20.3270663 104.876125,20.9453388 103.847729,22.0380098 C102.819333,23.1306808 102.289072,24.6002814 102.382857,26.0978571 C102.349527,27.6304733 102.940866,29.1107527 104.020999,30.1985648 C105.101133,31.2863769 106.577186,31.8881869 108.11,31.8657143 C110.038308,31.8761086 111.843016,30.9176761 112.914286,29.3142857 L110.946429,27.9571429 C110.348941,28.9532072 109.271519,29.5615124 108.11,29.5585714 C106.907017,29.6044227 105.798299,28.9101284 105.314286,27.8078571 L113.036429,24.6185714 L112.751429,24.0078571 Z M104.88,25.935 C104.824428,25.0870086 105.112513,24.2523396 105.679312,23.6191594 C106.24611,22.9859792 107.04391,22.6075865 107.892857,22.5692857 C108.787716,22.51032 109.631447,22.9909263 110.037143,23.7907143 L104.88,25.935 Z M98.61,31.5264286 L101.147857,31.5264286 L101.147857,14.5621429 L98.61,14.5621429 L98.61,31.5264286 Z M94.4571429,21.6192857 L94.3621429,21.6192857 C93.58852,20.7543471 92.4825776,20.2606228 91.3221429,20.2621429 C88.2416279,20.4115258 85.8207432,22.9526509 85.8207432,26.0367857 C85.8207432,29.1209205 88.2416279,31.6620456 91.3221429,31.8114286 C92.4863393,31.8310036 93.5994502,31.3340791 94.3621429,30.4542857 L94.4435714,30.4542857 L94.4435714,31.3907143 C94.4435714,33.6028571 93.2628571,34.7835714 91.3628571,34.7835714 C90.0685541,34.7532765 88.9209881,33.9435454 88.4585714,32.7342857 L86.2464286,33.6571429 C87.0982822,35.7292435 89.1225276,37.0769506 91.3628571,37.0635714 C94.335,37.0635714 96.7914286,35.3128571 96.7914286,31.0514286 L96.7914286,20.6692857 L94.4571429,20.6692857 L94.4571429,21.6192857 Z M91.5528571,29.5992857 C89.7382046,29.4393597 88.3464393,27.9195432 88.3464393,26.0978571 C88.3464393,24.276171 89.7382046,22.7563546 91.5528571,22.5964286 C92.4297337,22.6414281 93.2513023,23.0385452 93.8312962,23.6977452 C94.41129,24.3569453 94.7005776,25.2223872 94.6335714,26.0978571 C94.7083972,26.9773528 94.4200352,27.8491565 93.8355311,28.510569 C93.2510271,29.1719815 92.421307,29.5653759 91.5392857,29.5992857 L91.5528571,29.5992857 Z M124.64,14.5621429 L118.573571,14.5621429 L118.573571,31.5264286 L121.111429,31.5264286 L121.111429,25.0935714 L124.653571,25.0935714 C126.625239,25.2326435 128.509427,24.2586909 129.536164,22.5697189 C130.5629,20.8807469 130.560167,18.7597231 129.529081,17.073403 C128.497995,15.3870829 126.611303,14.4179896 124.64,14.5621429 L124.64,14.5621429 Z M124.64,22.705 L121.097857,22.705 L121.097857,16.9235714 L124.694286,16.9235714 C126.298278,16.9235714 127.598571,18.2238644 127.598571,19.8278571 C127.598571,21.4318499 126.298278,22.7321429 124.694286,22.7321429 L124.64,22.705 Z M140.287857,20.2621429 C138.399682,20.1492814 136.624504,21.1674766 135.768571,22.8542857 L138.021429,23.7907143 C138.475265,22.9542639 139.380098,22.4645897 140.328571,22.5421429 C140.979359,22.4661356 141.633401,22.6547451 142.143788,23.0656067 C142.654175,23.4764682 142.978119,24.0751374 143.042857,24.7271429 L143.042857,24.9035714 C142.227747,24.4719988 141.318732,24.2482413 140.396429,24.2521429 C137.967143,24.2521429 135.510714,25.6092857 135.510714,28.0657143 C135.559148,29.1238905 136.03354,30.1174829 136.825964,30.8204393 C137.618388,31.5233956 138.661455,31.8759372 139.717857,31.7978571 C141.019668,31.8913413 142.268701,31.266825 142.975,30.1692857 L143.056429,30.1692857 L143.056429,31.5264286 L145.499286,31.5264286 L145.499286,24.9985714 C145.499286,22.0264286 143.246429,20.3028571 140.355714,20.3028571 L140.287857,20.2621429 Z M139.975714,29.5585714 C139.035823,29.6900175 138.160346,29.0543974 137.994286,28.12 C137.994286,26.7628571 139.432857,26.315 140.708571,26.315 C141.514771,26.2951069 142.311535,26.4919543 143.015714,26.885 C142.84023,28.4042061 141.572425,29.5620193 140.043571,29.5992857 L139.975714,29.5585714 Z M154.402143,20.6692857 L151.497857,28.025 L151.416429,28.025 L148.403571,20.6692857 L145.689286,20.6692857 L150.208571,30.9564286 L147.63,36.67 L150.276429,36.67 L157.225,20.6692857 L154.415714,20.6692857 L154.402143,20.6692857 Z M131.588571,31.5264286 L134.126429,31.5264286 L134.126429,14.5621429 L131.588571,14.5621429 L131.588571,31.5264286 Z" id="Shape" fill="#FFFFFF"></path>
                    <path d="M0.637857143,1.045 C0.195516727,1.57578988 -0.0277486178,2.25529311 0.0135714286,2.945 L0.0135714286,32.965 C-0.0277486178,33.6547069 0.195516727,34.3342101 0.637857143,34.865 L0.732857143,34.96 L17.5478571,18.1585714 L17.5478571,17.7514286 L0.732857143,0.95 L0.637857143,1.045 Z" id="Shape" fill="url(#linearGradient-1)"></path>
                    <path d="M23.1121429,23.7635714 L17.5478571,18.1585714 L17.5478571,17.7514286 L23.1121429,12.1464286 L23.2342857,12.2142857 L29.8978571,16.0007143 C31.7978571,17.0728571 31.7978571,18.8371429 29.8978571,19.9228571 L23.2614286,23.6957143 L23.1121429,23.7635714 Z" id="Shape" fill="url(#linearGradient-2)"></path>
                    <path d="M23.275,23.6821429 L17.5478571,17.955 L0.637857143,34.865 C1.4368312,35.5673518 2.62258216,35.6015562 3.46071429,34.9464286 L23.2885714,23.6821429" id="Shape" fill="url(#linearGradient-3)"></path>
                    <path d="M23.275,12.2278571 L3.44714286,0.963571429 C2.60901073,0.308443816 1.42325978,0.342648171 0.624285714,1.045 L17.5478571,17.955 L23.275,12.2278571 Z" id="Shape" fill="url(#linearGradient-4)"></path>
                </g>
            </g>
        </g>
    </g>
</svg>